<svg version="1.0" xmlns="http://www.w3.org/2000/svg" width="119.000000pt" height="31.000000pt" viewBox="0 0 1194 318" preserveAspectRatio="xMidYMid meet"><g transform="matrix(.1 0 0 -.1 0 318)" fill="#000000" stroke="none"><path d="M362 2827 90 2555V1075l280 -280 280 -280v1870l108 108 107 107h950l132 -132 133 -133V125l490 490 490 490v470l-230 -230 -230 -230v1410l-288 288 -287 287H635z"/><path d="m2418 2828 272 -273V1355l185 185 185 185 -2 685 -3 685 -455 3 -455 2z"/><path d="M3320 2425v-675h300v600h440v150h-440v450h580v150h-880z"/><path d="M4650 3025v-75h-150V1750h300v450h290v-450h300v1200h-150v150h-590zm440 -375v-300h-290v600h290z"/><path d="M5690 2425v-675h300v750h140v300h-140v300h-300z"/><path d="M6280 2800v-300h-140v-300h140v-450h300v1350h-300z"/><path d="M6870 3025v-75h290V1750h300v1200h290v150h-880z"/><path d="M8200 3025v-75h-150V1750h300v450h290v-450h300v1200h-150v150h-590zm440 -375v-300h-290v600h290z"/><path d="M9380 3025v-75h-150v-450h150v-150h440v-450h-290v300h-300v-300h150v-150h590v150h150v450h-150v150h-440v450h290v-300h300v300h-150v150h-590z"/><path d="M10420 2800v-300h140v-150h150v-600h300v600h150v150h150v600h-300v-600h-290v600h-300z"/><path d="m797 2452 -107 -107V510h360v710h480v450h-480v430h990v215l-123 123 -122 122H905z"/></g></svg>
