<?xml version="1.0" standalone="no"?>
<!DOCTYPE svg PUBLIC "-//W3C//DTD SVG 20010904//EN"
 "http://www.w3.org/TR/2001/REC-SVG-20010904/DTD/svg10.dtd">
<svg version="1.0" xmlns="http://www.w3.org/2000/svg"
 width="400.000000pt" height="400.000000pt" viewBox="0 0 400.000000 400.000000"
 preserveAspectRatio="xMidYMid meet">

<g transform="translate(0.000000,400.000000) scale(0.100000,-0.100000)"
fill="#000000" stroke="none">
<path d="M762 3037 l-272 -272 0 -740 0 -740 280 -280 280 -280 0 935 0 935
108 108 107 107 475 0 475 0 132 -132 133 -133 0 -1105 0 -1105 490 490 490
490 0 235 0 235 -230 -230 -230 -230 0 705 0 705 -288 288 -287 287 -695 0
-695 0 -273 -273z"/>
<path d="M2818 3038 l272 -273 0 -600 0 -600 185 185 185 185 -2 685 -3 685
-455 3 -455 2 273 -272z"/>
<path d="M1197 2662 l-107 -107 0 -918 0 -917 180 0 180 0 0 355 0 355 240 0
240 0 0 225 0 225 -240 0 -240 0 0 215 0 215 495 0 495 0 0 108 0 107 -123
123 -122 122 -445 0 -445 0 -108 -108z"/>
</g>
</svg>
