<?xml version="1.0" standalone="no"?>
<!DOCTYPE svg PUBLIC "-//W3C//DTD SVG 20010904//EN"
 "http://www.w3.org/TR/2001/REC-SVG-20010904/DTD/svg10.dtd">
<svg version="1.0" xmlns="http://www.w3.org/2000/svg"
 width="130.000000pt" height="31.000000pt" viewBox="0 0 1339.000000 318.000000"
 preserveAspectRatio="xMidYMid meet">

<g transform="translate(0.000000,318.000000) scale(0.100000,-0.100000)"
fill="#000000" stroke="none">
<path d="M272 2827 l-272 -272 0 -740 0 -740 280 -280 280 -280 0 935 0 935
108 108 107 107 475 0 475 0 132 -132 133 -133 0 -1105 0 -1105 490 490 490
490 0 235 0 235 -230 -230 -230 -230 0 705 0 705 -288 288 -287 287 -695 0
-695 0 -273 -273z"/>
<path d="M2328 2828 l272 -273 0 -600 0 -600 185 185 185 185 -2 685 -3 685
-455 3 -455 2 273 -272z"/>
<path d="M3230 2425 l0 -675 150 0 150 0 0 300 0 300 220 0 220 0 0 75 0 75
-220 0 -220 0 0 225 0 225 290 0 290 0 0 75 0 75 -440 0 -440 0 0 -675z"/>
<path d="M4560 3025 l0 -75 -75 0 -75 0 0 -600 0 -600 150 0 150 0 0 225 0
225 145 0 145 0 0 -225 0 -225 150 0 150 0 0 600 0 600 -75 0 -75 0 0 75 0 75
-295 0 -295 0 0 -75z m440 -375 l0 -300 -145 0 -145 0 0 300 0 300 145 0 145
0 0 -300z"/>
<path d="M5600 2425 l0 -675 150 0 150 0 0 375 0 375 70 0 70 0 0 150 0 150
-70 0 -70 0 0 150 0 150 -150 0 -150 0 0 -675z"/>
<path d="M6190 2800 l0 -300 -70 0 -70 0 0 -150 0 -150 70 0 70 0 0 -225 0
-225 150 0 150 0 0 675 0 675 -150 0 -150 0 0 -300z"/>
<path d="M6780 3025 l0 -75 145 0 145 0 0 -600 0 -600 150 0 150 0 0 600 0
600 145 0 145 0 0 75 0 75 -440 0 -440 0 0 -75z"/>
<path d="M8110 3025 l0 -75 -75 0 -75 0 0 -600 0 -600 150 0 150 0 0 225 0
225 145 0 145 0 0 -225 0 -225 150 0 150 0 0 600 0 600 -75 0 -75 0 0 75 0 75
-295 0 -295 0 0 -75z m440 -375 l0 -300 -145 0 -145 0 0 300 0 300 145 0 145
0 0 -300z"/>
<path d="M9290 3025 l0 -75 -75 0 -75 0 0 -225 0 -225 75 0 75 0 0 -75 0 -75
220 0 220 0 0 -225 0 -225 -145 0 -145 0 0 150 0 150 -150 0 -150 0 0 -150 0
-150 75 0 75 0 0 -75 0 -75 295 0 295 0 0 75 0 75 75 0 75 0 0 225 0 225 -75
0 -75 0 0 75 0 75 -220 0 -220 0 0 225 0 225 145 0 145 0 0 -150 0 -150 150 0
150 0 0 150 0 150 -75 0 -75 0 0 75 0 75 -295 0 -295 0 0 -75z"/>
<path d="M10330 2800 l0 -300 70 0 70 0 0 -75 0 -75 75 0 75 0 0 -300 0 -300
150 0 150 0 0 300 0 300 75 0 75 0 0 75 0 75 75 0 75 0 0 300 0 300 -150 0
-150 0 0 -300 0 -300 -145 0 -145 0 0 300 0 300 -150 0 -150 0 0 -300z"/>
<path d="M11480 3025 l0 -75 75 0 75 0 0 -225 0 -225 75 0 75 0 0 225 0 225
75 0 75 0 0 75 0 75 -225 0 -225 0 0 -75z"/>
<path d="M12080 2800 l0 -300 75 0 75 0 0 150 0 150 75 0 75 0 0 -75 0 -75 75
0 75 0 0 75 0 75 75 0 75 0 0 -150 0 -150 75 0 75 0 0 300 0 300 -75 0 -75 0
0 -75 0 -75 -75 0 -75 0 0 -75 0 -75 -75 0 -75 0 0 75 0 75 -75 0 -75 0 0 75
0 75 -75 0 -75 0 0 -300z"/>
<path d="M707 2452 l-107 -107 0 -918 0 -917 180 0 180 0 0 355 0 355 240 0
240 0 0 225 0 225 -240 0 -240 0 0 215 0 215 495 0 495 0 0 108 0 107 -123
123 -122 122 -445 0 -445 0 -108 -108z"/>
</g>
</svg>
