<svg version="1.0" xmlns="http://www.w3.org/2000/svg" width="133.333" height="28" viewBox="0 0 974 156"><path d="M0 73.5V141h29V81h45V66H29V21h60V6H0zm134-60V21h-15v120h30V96h30v45h30V21h-15V6h-60zM179 51v30h-30V21h30zm60 22.5V141h30V66h15v30h15v45h30V6h-30v60h-15V36h-15V6h-30zm120-60V21h30v120h30V21h30V6h-90zm135 0V21h-15v120h30V96h30v45h30V21h-15V6h-60zM539 51v30h-30V21h30zm75-37.5V21h-15v45h15v15h45v45h-30V96h-30v30h15v15h60v-15h15V81h-15V66h-45V21h30v30h30V21h-15V6h-60zM719 36v30h15v15h15v60h30V81h15V66h15V6h-30v60h-30V6h-30zm105-22.5V21h15v45h15V21h15V6h-45zM884 36v30h15V36h15v15h15V36h15v30h15V6h-15v15h-15v15h-15V21h-15V6h-15z"/></svg>